<?xml version="1.0" encoding="UTF-8" standalone="no"?>
<svg width="2956px" height="4639px" viewBox="0 0 2956 4639" version="1.1" xmlns="http://www.w3.org/2000/svg" xmlns:xlink="http://www.w3.org/1999/xlink">
    <!-- Generator: Sketch 43.2 (39069) - http://www.bohemiancoding.com/sketch -->
    <title>Group 2</title>
    <desc>Created with Sketch.</desc>
    <defs></defs>
    <g id="Page-1" stroke="none" stroke-width="1" fill="none" fill-rule="evenodd">
        <g id="Group-2" transform="translate(-22.000000, 4.000000)" stroke="#979797">
            <path d="M604.892446,2479.48476 C604.892446,2479.48476 866.064654,4120.86496 1500.23812,4120.86496 C2134.41159,4120.86496 2395.5838,2479.48476 2395.5838,2479.48476" id="Path-3" stroke-width="13"></path>
            <path d="M1507.55439,2514.6211 L1507.94306,3302.74013" id="Path-4" stroke-width="2"></path>
            <path d="M111.967297,2453.21841 C111.967297,2453.21841 12.5755868,2207.33818 28.6895781,2092.96681 C109.422448,1519.95366 247.198502,0.740247665 1511.55775,0.740247665 C2772.83439,0.740247665 2896.48578,1571.97329 2971.47234,2092.96681 C2988.06217,2208.2301 2896.26243,2445.50251 2896.26243,2445.50251" id="Path-5" stroke-width="8"></path>
            <path d="M109.378379,2436.9871 C109.378379,2436.9871 195.132591,4630.61288 1509.78,4630.61288 C2824.4274,4630.61288 2897.18198,2436.9871 2897.18198,2436.9871" id="Path-8" stroke-width="7"></path>
        </g>
    </g>
</svg>